<svg xmlns="http://www.w3.org/2000/svg" viewBox="0 0 64 64" role="img" aria-labelledby="logoTitle">
  <title id="logoTitle">Studio Creart</title>
  <rect width="64" height="64" rx="16" fill="#0f172a"/>
  <path d="M20 20c0-5.523 4.477-10 10-10s10 4.477 10 10c0 2.761-1.119 5.26-2.929 7.071L32 38l-5.071-5.071C21.119 25.26 20 22.761 20 20zm10 3c1.657 0 3-1.343 3-3s-1.343-3-3-3-3 1.343-3 3 1.343 3 3 3z" fill="#f8fafc"/>
  <path d="M37.5 34.5c2.79 2.79 2.192 8.323 0.313 10.201a2 2 0 0 1-2.828-2.828c1.039-1.039 1.489-3.271 0.41-4.35l-8.5-8.5a1 1 0 0 1 0-1.414l5.5-5.5a1 1 0 0 1 1.414 0l8.5 8.5c1.5 1.5 1.5 3.939 0 5.439l-4.309 4.309z" fill="#f472b6"/>
</svg>
